<svg xmlns="http://www.w3.org/2000/svg" version="1.1" xmlns:xlink="http://www.w3.org/1999/xlink" xmlns:svgjs="http://svgjs.dev/svgjs" width="1440" height="560" preserveAspectRatio="none" viewBox="0 0 1440 560"><g mask="url(&quot;#SvgjsMask1013&quot;)" fill="none"><rect width="1440" height="560" x="0" y="0" fill="rgba(242, 242, 242, 1)"></rect><path d="M297.73 647.47C465.39 638.27 573.26 344.57 892.92 336.26 1212.59 327.95 1334.25 180.77 1488.12 179.46" stroke="rgba(27, 66, 66, 1)" stroke-width="2"></path><path d="M343.98 641.96C548 611.21 655.3 127.21 987.06 124.67 1318.81 122.13 1462.47 313.08 1630.13 315.07" stroke="rgba(27, 66, 66, 1)" stroke-width="2"></path><path d="M471.28 588.25C587.83 577.64 662.91 336.27 865.04 335.07 1067.17 333.87 1061.92 405.07 1258.79 405.07 1455.67 405.07 1552.57 335.34 1652.55 335.07" stroke="rgba(27, 66, 66, 1)" stroke-width="2"></path><path d="M696.27 589.04C788.85 561.26 717.3 325.42 950.69 297.94 1184.08 270.46 1317.13 47.54 1459.53 40.34" stroke="rgba(27, 66, 66, 1)" stroke-width="2"></path><path d="M730 667.48C850.48 582.87 779.3 147.32 993.27 140.73 1207.24 134.14 1379.39 333.59 1519.81 336.73" stroke="rgba(27, 66, 66, 1)" stroke-width="2"></path></g><defs><mask id="SvgjsMask1013"><rect width="1440" height="560" fill="#ffffff"></rect></mask></defs></svg>