<svg xmlns="http://www.w3.org/2000/svg" version="1.1" xmlns:xlink="http://www.w3.org/1999/xlink" xmlns:svgjs="http://svgjs.dev/svgjs" width="1440" height="560" preserveAspectRatio="none" viewBox="0 0 1440 560"><g mask="url(&quot;#SvgjsMask1014&quot;)" fill="none"><rect width="1440" height="560" x="0" y="0" fill="rgba(242, 242, 242, 1)"></rect><path d="M-36.84 458.87C115.18 454.52 241.65 228.79 526.5 229.27 811.35 229.75 918.32 609.04 1089.84 628.6" stroke="rgba(27, 66, 66, 1)" stroke-width="2"></path><path d="M-54.57 266.24C89.72 274.25 187.48 530.58 457.18 535.04 726.88 539.5 839.71 607.53 968.93 607.71" stroke="rgba(27, 66, 66, 1)" stroke-width="2"></path><path d="M-13.38 370.94C145.19 370.43 293.77 252.58 609.91 253.34 926.05 254.1 1057.16 573.45 1233.2 583.43" stroke="rgba(27, 66, 66, 1)" stroke-width="2"></path><path d="M-70.84 300.02C73.76 297.32 194.08 107.63 475.45 109.62 756.81 111.61 845.52 540.88 1021.73 570.21" stroke="rgba(27, 66, 66, 1)" stroke-width="2"></path><path d="M-104.25 496.8C13.06 497 127.74 566.8 359.74 566.8 591.73 566.8 591.3 496.77 823.72 496.8 1056.14 496.83 1167.5 621.92 1287.71 623.04" stroke="rgba(27, 66, 66, 1)" stroke-width="2"></path></g><defs><mask id="SvgjsMask1014"><rect width="1440" height="560" fill="#ffffff"></rect></mask></defs></svg>