<svg xmlns="http://www.w3.org/2000/svg" version="1.1" xmlns:xlink="http://www.w3.org/1999/xlink" xmlns:svgjs="http://svgjs.dev/svgjs" width="1440" height="560" preserveAspectRatio="none" viewBox="0 0 1440 560"><g mask="url(&quot;#SvgjsMask1015&quot;)" fill="none"><rect width="1440" height="560" x="0" y="0" fill="rgba(242, 242, 242, 1)"></rect><path d="M1549.52 348.66C1388.47 343.14 1272.39 97.38 958.64 91.06 644.9 84.74 521.17-72.94 367.77-74.49" stroke="rgba(27, 66, 66, 1)" stroke-width="2"></path><path d="M1686.9 381.62C1514.2 377.18 1304.06 137.16 1043.45 129.62 782.85 122.08 809.69-10.19 721.73-13.36" stroke="rgba(27, 66, 66, 1)" stroke-width="2"></path><path d="M1618.93 130.78C1504.72 130.57 1393.2 60.78 1167.47 60.78 941.74 60.78 942.51 130.84 716.02 130.78 489.52 130.72 383.06-12.07 264.56-13.82" stroke="rgba(27, 66, 66, 1)" stroke-width="2"></path><path d="M1576.87 405.48C1438.93 401.92 1283.53 218.32 1063.06 203.88 842.6 189.44 891-10.89 806.16-26.99" stroke="rgba(27, 66, 66, 1)" stroke-width="2"></path><path d="M1548.74 173.89C1422.22 180.35 1327.38 404.38 1096.99 403.49 866.61 402.6 795.14 21.56 645.25-7.62" stroke="rgba(27, 66, 66, 1)" stroke-width="2"></path></g><defs><mask id="SvgjsMask1015"><rect width="1440" height="560" fill="#ffffff"></rect></mask></defs></svg>