<svg xmlns="http://www.w3.org/2000/svg" version="1.1" xmlns:xlink="http://www.w3.org/1999/xlink" xmlns:svgjs="http://svgjs.dev/svgjs" width="1440" height="560" preserveAspectRatio="none" viewBox="0 0 1440 560"><g mask="url(&quot;#SvgjsMask1019&quot;)" fill="none"><rect width="1440" height="560" x="0" y="0" fill="rgba(242, 242, 242, 1)"></rect><path d="M1012.88-65.43C886.41-42 832.13 272.22 628.18 276.17 424.24 280.12 435.84 206.17 243.49 206.17 51.14 206.17-43.46 275.89-141.21 276.17" stroke="rgba(27, 66, 66, 1)" stroke-width="2"></path><path d="M743.32-63.09C656.21-61.97 676.99 32.33 409.97 38.47 142.94 44.61-76.58 307.57-256.74 312.87" stroke="rgba(27, 66, 66, 1)" stroke-width="2"></path><path d="M1156.11-83.41C975.02-63.42 865.04 332.3 558.72 334.01 252.4 335.72 115.05 189.46-38.67 188.41" stroke="rgba(27, 66, 66, 1)" stroke-width="2"></path><path d="M705.38-63.71C552.15-34.62 476.1 352.91 241.37 353.33 6.64 353.75-88.24 88.94-222.64 78.93" stroke="rgba(27, 66, 66, 1)" stroke-width="2"></path><path d="M1090.75-37.15C955.56-20.66 879.56 281.7 650.8 284.15 422.04 286.6 430.82 214.15 210.84 214.15-9.13 214.15-117.74 283.93-229.11 284.15" stroke="rgba(27, 66, 66, 1)" stroke-width="2"></path></g><defs><mask id="SvgjsMask1019"><rect width="1440" height="560" fill="#ffffff"></rect></mask></defs></svg>