<svg xmlns="http://www.w3.org/2000/svg" width="512" height="512" viewBox="0 0 512 512" version="1.1">
	<path d="M 245.792 48.250 C 245.251 64.569, 242.825 72.469, 231.708 94.127 C 227.596 102.138, 223.730 111.034, 223.116 113.895 C 221.482 121.515, 221.734 133.947, 223.643 139.856 C 225.402 145.304, 227 145.785, 227 140.867 C 227 135.864, 231.581 123.814, 237.066 114.389 C 239.911 109.500, 244.014 102.258, 246.182 98.295 L 250.126 91.089 254.081 98.795 C 256.257 103.033, 263.215 113.475, 269.542 122 C 275.870 130.525, 282.786 140.938, 284.911 145.140 L 288.774 152.780 289.376 149.140 C 290.473 142.504, 290.022 130.874, 288.429 124.724 C 286.533 117.410, 282.850 109.937, 275.602 98.702 C 263.340 79.695, 259.197 67.504, 258.286 47.750 L 257.698 35 251.965 35 L 246.232 35 245.792 48.250 M 146.500 59.787 C 132.546 67.230, 124.060 74.738, 118.551 84.515 C 112.022 96.101, 108.673 100.036, 99.095 107.378 C 70.758 129.099, 48.758 164.032, 37.979 204.419 C 26.356 247.975, 29.907 286.775, 49.016 325 C 51.078 329.125, 54.220 337.225, 55.999 343 C 59.408 354.064, 63.360 362.652, 70.150 373.746 C 88.327 403.443, 120.991 432.067, 152.500 445.910 C 165.241 451.508, 168.814 452.166, 166.235 448.438 C 165.188 446.925, 142.279 427.023, 130.274 417.196 C 97.801 390.617, 83.115 361.944, 83.017 324.932 C 82.987 313.458, 79.556 304.677, 70.931 294 C 60.321 280.867, 56.435 267.387, 57.237 246.500 C 57.729 233.705, 59.907 223.458, 64.568 212.011 C 68.526 202.292, 73.349 195.722, 81.637 188.764 C 85.740 185.319, 90.386 180.475, 91.961 178 C 94.707 173.683, 98.704 162.454, 97.218 163.229 C 89.478 167.268, 80.504 171.051, 79.243 170.808 C 77.554 170.483, 84.046 162.790, 103.923 141.563 C 121.459 122.835, 125.589 116.007, 129.064 100.003 C 130.197 94.779, 131.932 88.704, 132.919 86.503 C 135.024 81.805, 141.429 73.220, 149.929 63.702 C 153.268 59.963, 156 56.701, 156 56.452 C 156 55.282, 152.914 56.365, 146.500 59.787 M 357 56.708 C 357 57.097, 358.508 59.010, 360.352 60.958 C 366.348 67.295, 376.924 80.930, 379.002 85.003 C 380.117 87.190, 381.984 93.146, 383.151 98.240 C 386.845 114.370, 391.206 122.143, 404.053 135.500 C 418.036 150.038, 435.271 170.410, 433.957 170.848 C 433.262 171.079, 428.759 169.233, 423.949 166.745 L 415.206 162.221 417.185 168.083 C 419.910 176.152, 423.509 181.157, 431.762 188.354 C 440.792 196.229, 443.082 199.061, 447.432 207.728 C 455.587 223.978, 459.150 249.353, 455.609 265.965 C 453.533 275.704, 448.540 286.028, 442.292 293.500 C 433.836 303.611, 431 311.479, 431 324.825 C 431 341.484, 427.028 358.044, 419.396 373.211 C 411.311 389.279, 401.779 400.399, 381.920 416.934 C 365.995 430.193, 345 449.159, 345 450.287 C 345 453.360, 370.245 441.128, 386.770 430.049 C 420.945 407.134, 448.796 372.125, 457.463 341.186 C 458.956 335.859, 462.756 326.657, 466.342 319.686 C 477.783 297.450, 481.455 281.515, 481.365 254.500 C 481.258 222.373, 474.638 195.145, 459.716 165.453 C 446.463 139.083, 432.505 121.830, 411.459 105.804 C 403.445 99.702, 398.987 94.631, 394.908 86.979 C 388.780 75.482, 378.920 66.519, 364.279 59.137 C 357.687 55.813, 357 55.584, 357 56.708 M 295.295 108.500 C 295.559 110.700, 296.720 116.775, 297.874 122 C 299.029 127.225, 299.972 133.750, 299.969 136.500 C 299.963 144.687, 297.311 154.985, 293.008 163.536 C 288.946 171.609, 279.513 184.371, 278.026 183.804 C 277.588 183.637, 274.073 178.769, 270.215 172.986 C 260.529 158.466, 242.039 137.627, 240.345 139.321 C 239.176 140.491, 239.627 173.196, 240.884 178.383 C 241.535 181.068, 241.818 183.516, 241.512 183.822 C 240.598 184.735, 228.738 171.994, 224.002 165.010 C 218.599 157.045, 214.407 146.509, 212.979 137.303 C 212.126 131.805, 212.224 128.214, 213.451 120.006 C 214.303 114.309, 214.986 108.714, 214.968 107.574 C 214.937 105.507, 214.931 105.507, 213.386 107.500 C 210.486 111.243, 205.190 122.565, 202.842 130.043 C 200.817 136.490, 200.502 139.532, 200.516 152.500 L 200.532 167.500 204.766 179.250 C 207.095 185.713, 210.912 196.287, 213.250 202.750 L 217.500 214.500 217.447 235.253 C 217.418 246.667, 217.685 255.667, 218.040 255.253 C 230.793 240.392, 242.558 221.901, 247.857 208.388 C 252.317 197.016, 254.163 180.720, 252.031 171.528 C 251.525 169.344, 251.277 167.390, 251.480 167.186 C 252.063 166.604, 264.520 182.595, 271.116 192.392 C 287.154 216.214, 294.441 241.895, 292.145 266.500 C 291.683 271.450, 291.453 275.680, 291.635 275.899 C 291.817 276.119, 293.331 273.380, 295.001 269.812 C 299.511 260.174, 300.961 251.638, 300.997 234.500 C 301.035 217.166, 301.689 213.760, 309.626 189.564 C 314.159 175.748, 315.281 170.960, 315.715 163.564 C 316.893 143.521, 309.817 121.432, 297.916 108 L 294.815 104.500 295.295 108.500 M 364.607 122.358 C 363.634 124.907, 360.626 130.379, 357.924 134.519 C 344.025 155.810, 341.989 167.360, 349.453 182.559 C 353.889 191.590, 356.113 193.725, 359.485 192.189 C 362.322 190.896, 363.232 191.951, 364.494 198 C 364.895 199.925, 366.119 204.117, 367.213 207.316 C 368.306 210.515, 368.997 213.337, 368.746 213.587 C 368.496 213.837, 365.544 212.208, 362.187 209.966 C 352.884 203.754, 345.826 193.915, 340.511 179.750 C 337.365 171.367, 336.034 174.258, 336.014 189.520 C 335.990 207.130, 340.760 219.578, 352.664 232.967 C 365.758 247.695, 369.998 256.969, 370.737 272.500 C 371.083 279.769, 370.774 284.178, 369.606 288.644 C 367.498 296.708, 367.580 299.795, 370.047 305.374 C 371.173 307.919, 372.361 312.252, 372.687 315.001 C 373.012 317.750, 373.661 320, 374.129 320 C 375.610 320, 381.855 309.736, 384.168 303.500 C 386.079 298.346, 386.392 295.525, 386.383 283.500 C 386.373 271.291, 386.043 268.444, 383.802 261.250 C 382.389 256.713, 381.525 253, 381.882 253 C 382.990 253, 388.864 262.571, 392.981 271.084 C 398.262 282.003, 400.443 292.105, 399.673 302.082 C 398.472 317.655, 390.597 334.375, 379.283 345.372 C 372.547 351.919, 365.914 356.314, 364.661 355.061 C 364.100 354.500, 363.510 343.902, 363.280 330.291 C 362.995 313.405, 362.435 304.765, 361.353 300.523 C 358.133 287.906, 356.467 287.973, 355.723 300.750 C 355.069 311.985, 353.860 315.862, 347.639 326.672 C 343.338 334.145, 341.756 338.332, 337.016 354.794 C 334.206 364.554, 330.772 368.151, 313.280 379.659 C 291.742 393.830, 276.247 409.713, 261.498 432.741 C 259.299 436.174, 257.231 438.986, 256.902 438.991 C 256.573 438.996, 253.202 434.162, 249.412 428.250 C 235.418 406.424, 223.530 394.461, 201 379.537 C 181.628 366.705, 179.834 364.280, 176.986 347.080 C 176.084 341.629, 174.211 336.586, 169.930 328.080 C 163.130 314.568, 162.058 310.588, 162.024 298.750 C 161.999 289.757, 161.190 288.221, 158.599 292.250 C 155.387 297.244, 153.927 306.594, 153.015 328 C 152.167 347.883, 151.388 356, 150.327 356 C 150.094 356, 147.552 354.496, 144.678 352.657 C 133.279 345.365, 122.193 329.171, 118.966 315.097 C 117.194 307.368, 117.443 292.755, 119.487 284.500 C 121.386 276.831, 127.241 263.483, 131.371 257.405 C 134.551 252.724, 134.622 253.655, 131.885 264.211 C 128.924 275.634, 129.533 293.367, 133.225 303.242 C 135.880 310.342, 141.873 321, 143.211 321 C 143.645 321, 144 319.227, 144 317.060 C 144 314.892, 145.172 309.870, 146.605 305.898 C 149.338 298.321, 149.333 297.226, 146.513 287.032 C 145.681 284.025, 145 278.157, 145 273.992 C 145 259.148, 149.948 246.885, 160.961 234.432 C 172.924 220.906, 177.955 208.603, 177.985 192.799 C 178.002 184.260, 176.252 174.339, 174.962 175.654 C 174.505 176.119, 173.034 179.534, 171.693 183.242 C 168.307 192.601, 163.379 200.425, 157.552 205.690 C 153.318 209.517, 146.301 214, 144.548 214 C 144.255 214, 144.779 212.094, 145.711 209.763 C 146.644 207.433, 148.121 202.821, 148.995 199.513 C 150.534 193.688, 150.680 193.509, 153.664 193.797 C 156.112 194.033, 157.314 193.418, 159.529 190.797 C 166.947 182.018, 170.006 166.721, 166.512 155.873 C 164.325 149.083, 158.946 139.018, 153.925 132.320 C 151.788 129.471, 149.068 125.273, 147.878 122.991 C 146.297 119.957, 145.482 119.199, 144.847 120.171 C 143.737 121.870, 144.504 126.728, 148.106 140.818 C 152.251 157.029, 151.638 168.942, 146.181 178.250 C 144.087 181.821, 142.712 181.726, 141.272 177.909 C 139.843 174.125, 138 174.936, 138 179.349 C 138 183.983, 135.419 193.240, 132.546 198.910 C 131.186 201.592, 126.833 207.547, 122.870 212.143 C 113.970 222.467, 109.535 229.305, 105.452 239 C 96.731 259.704, 95.857 278.079, 102.653 297.829 C 104.040 301.860, 104.914 305.420, 104.594 305.740 C 103.395 306.938, 99.818 302.388, 96.068 294.896 C 91.805 286.380, 91.040 286.649, 91.014 296.678 C 90.956 318.434, 101.074 345.846, 114.857 361.272 C 118.925 365.826, 123.553 372.452, 126.032 377.272 C 128.360 381.798, 132.090 387.902, 134.321 390.837 C 138.311 396.086, 152.928 409.405, 153.772 408.561 C 154.010 408.324, 153.520 405.963, 152.685 403.315 C 150.057 394.984, 149.674 391, 151.500 391 C 154.323 391, 157.841 395.643, 159.567 401.647 C 161.824 409.496, 163.406 412.400, 168.333 417.746 C 177.819 428.037, 192.274 435.383, 214.051 440.981 C 222.191 443.073, 230.999 445.846, 233.626 447.143 C 236.252 448.439, 242.535 453.442, 247.588 458.261 L 256.775 467.022 265.210 458.761 C 269.849 454.217, 275.870 449.291, 278.590 447.814 C 281.309 446.337, 289.827 443.504, 297.517 441.517 C 320.125 435.679, 338.431 425.864, 346.554 415.226 C 348.382 412.831, 351.064 407.313, 352.512 402.963 C 354.373 397.375, 356.027 394.313, 358.150 392.527 C 363.762 387.805, 364.177 389.217, 360.540 400.669 C 359.188 404.929, 358.281 408.614, 358.525 408.858 C 359.440 409.773, 374.461 397.357, 378.272 392.536 C 380.454 389.777, 384.239 383.468, 386.685 378.517 C 389.889 372.032, 393.019 367.556, 397.881 362.508 C 406.217 353.852, 410.076 348.248, 415.133 337.457 C 420.464 326.081, 423.015 315.622, 423.661 302.500 C 424.207 291.390, 423.069 284.101, 421.476 288.500 C 418.170 297.627, 412.907 306.232, 411.491 304.822 C 411.116 304.448, 412.089 299.948, 413.653 294.822 C 416.143 286.655, 416.490 283.952, 416.455 273 C 416.383 250.348, 409.602 233.651, 392.088 213 C 383.848 203.283, 379.705 195.525, 377.404 185.500 C 376.520 181.650, 375.632 177.938, 375.430 177.250 C 374.775 175.020, 372.922 175.926, 371.850 179 C 371.275 180.650, 370.427 182, 369.965 182 C 369.503 182, 367.699 179.103, 365.956 175.562 C 361.123 165.746, 360.851 156.454, 364.893 139.371 C 368.074 125.931, 368.414 122.912, 367.118 119.612 C 366.513 118.071, 366.052 118.576, 364.607 122.358 M 205.220 216.515 C 204.545 220.073, 202.168 227.150, 199.938 232.242 C 183.870 268.923, 182.524 273.695, 182.510 294 C 182.501 308.420, 182.702 310.117, 185.402 318.353 C 191.344 336.483, 200.802 348.712, 229.227 375.020 C 238.426 383.534, 248.517 393.313, 251.650 396.750 C 254.784 400.188, 257.734 403, 258.207 403 C 259.282 403, 285.881 378.989, 300.237 365.059 C 328.222 337.905, 339.775 308.959, 334.586 279 C 332.310 265.860, 328.868 255.048, 322.401 240.722 C 319.367 234, 315.897 226.138, 314.692 223.251 C 313.486 220.365, 312.099 218.002, 311.609 218.001 C 310.673 218, 311.198 228.182, 312.929 243.586 C 315.183 263.645, 310.362 280.240, 297.367 297.162 C 292.580 303.395, 280.209 315, 278.351 315 C 276.815 315, 271.727 301.599, 269.418 291.473 C 267.473 282.942, 266.860 261.729, 268.234 250.500 L 268.969 244.500 264.340 249.500 C 249.347 265.694, 239.861 285.233, 238.382 302.969 L 237.724 310.857 232.251 306.724 C 221.474 298.588, 213.993 286.825, 209.848 271.500 C 207.965 264.540, 207.726 261.421, 208.005 247.500 C 208.574 219.145, 208.465 212.065, 207.446 211.046 C 206.781 210.381, 206.037 212.208, 205.220 216.515" stroke="none" fill="black" fill-rule="evenodd"/>
</svg>